<svg width="250" height="350" viewBox="0 0 250 350" fill="none" xmlns="http://www.w3.org/2000/svg">
<rect width="250" height="350" fill="white"/>
<path d="M88.3993 237.939H64.371V134.691L49 129.033V111.884H69.848C77.6219 111.884 82.6278 113.298 84.8657 116.127C87.2214 118.956 88.3993 124.554 88.3993 132.923V237.939Z" fill="black"/>
<path d="M201.381 171.464V178.713C201.381 187.435 201.086 194.742 200.498 200.635C199.909 206.529 198.731 212.068 196.964 217.254C195.197 222.44 192.724 226.565 189.544 229.63C186.363 232.576 182.182 234.875 176.999 236.525C171.935 238.175 165.751 239 158.448 239C151.145 239 144.903 238.175 139.72 236.525C134.655 234.757 130.533 232.4 127.353 229.453C124.173 226.506 121.699 222.44 119.932 217.254C118.165 211.95 116.988 206.352 116.399 200.459C115.81 194.565 115.515 187.199 115.515 178.359V171.641C115.515 153.49 116.929 140.112 119.756 131.508C121.522 126.322 123.996 122.315 127.176 119.486C133.89 113.829 144.314 111 158.448 111C174.938 111 186.187 115.479 192.194 124.436C198.319 133.394 201.381 149.07 201.381 171.464ZM177.706 184.193V164.569C177.588 152.901 176.293 144.709 173.819 139.994C171.346 135.28 166.222 132.923 158.448 132.923C150.674 132.923 145.551 135.28 143.077 139.994C140.604 144.591 139.308 152.547 139.19 163.862V184.193C139.308 196.805 140.545 205.468 142.9 210.182C145.256 214.779 150.498 217.077 158.625 217.077C166.752 217.077 171.935 214.838 174.172 210.359C176.41 205.88 177.588 197.158 177.706 184.193Z" fill="black"/>
<path d="M62 42.6667C62 44.8061 61.4512 46.9093 60.4064 48.7734C59.3616 50.6375 57.8563 52.1994 56.0356 53.3085C54.2149 54.4175 52.1405 55.0362 50.0125 55.1047C47.8845 55.1733 45.7748 54.6894 43.8872 53.6999L46.528 61.6602C46.6166 61.9274 46.6408 62.212 46.5986 62.4904C46.5563 62.7689 46.4488 63.0333 46.2848 63.2618C46.1209 63.4903 45.9053 63.6764 45.6558 63.8048C45.4062 63.9331 45.1299 64 44.8496 64H33.1504C32.8701 64 32.5937 63.9331 32.3442 63.8047C32.0946 63.6764 31.879 63.4902 31.7151 63.2617C31.5512 63.0332 31.4436 62.7688 31.4014 62.4903C31.3591 62.2118 31.3833 61.9272 31.472 61.6599L34.1128 53.6999C32.2252 54.6894 30.1155 55.1733 27.9875 55.1047C25.8595 55.0362 23.7851 54.4175 21.9644 53.3085C20.1437 52.1994 18.6384 50.6375 17.5936 48.7734C16.5488 46.9093 16 44.8061 16 42.6667C16 30.7616 37.6035 16.7317 38.5231 16.1403C38.6655 16.0487 38.831 16 39 16C39.169 16 39.3345 16.0487 39.4769 16.1403C40.3965 16.7317 62 30.7616 62 42.6667Z" fill="black"/>
<path d="M234 307.333C234 305.194 233.451 303.091 232.406 301.227C231.362 299.363 229.856 297.801 228.036 296.692C226.215 295.582 224.14 294.964 222.012 294.895C219.884 294.827 217.775 295.311 215.887 296.3L218.528 288.34C218.617 288.073 218.641 287.788 218.599 287.51C218.556 287.231 218.449 286.967 218.285 286.738C218.121 286.51 217.905 286.324 217.656 286.195C217.406 286.067 217.13 286 216.85 286H205.15C204.87 286 204.594 286.067 204.344 286.195C204.095 286.324 203.879 286.51 203.715 286.738C203.551 286.967 203.444 287.231 203.401 287.51C203.359 287.788 203.383 288.073 203.472 288.34L206.113 296.3C204.225 295.311 202.116 294.827 199.988 294.895C197.86 294.964 195.785 295.582 193.964 296.692C192.144 297.801 190.638 299.363 189.594 301.227C188.549 303.091 188 305.194 188 307.333C188 319.238 209.604 333.268 210.523 333.86C210.665 333.951 210.831 334 211 334C211.169 334 211.335 333.951 211.477 333.86C212.396 333.268 234 319.238 234 307.333Z" fill="black"/>
</svg>
