<svg width="250" height="350" viewBox="0 0 250 350" fill="none" xmlns="http://www.w3.org/2000/svg">
<rect width="250" height="350" fill="white"/>
<path d="M166 149.225V199.197C166 212.406 162.547 222.342 155.64 229.005C148.851 235.668 139.135 239 126.493 239C113.85 239 104.427 235.785 98.2227 229.356C92.1356 222.927 89.0921 214.335 89.0921 203.581H111.392C111.392 205.568 111.626 207.555 112.094 209.542C112.68 211.413 114.084 213.342 116.308 215.329C118.532 217.199 121.517 218.134 125.263 218.134C131.468 218.134 135.974 216.439 138.784 213.049C141.71 209.542 143.173 205.042 143.173 199.548V181.137L124.034 192.008C97.3448 192.008 84 177.922 84 149.751C84 135.606 87.3362 125.612 94.0086 119.767C100.681 113.922 110.982 111 124.912 111C138.959 111 149.319 113.864 155.991 119.592C162.664 125.203 166 135.08 166 149.225ZM125.615 133.093C113.792 133.093 107.88 138.821 107.88 150.277C107.88 156.706 109.109 161.732 111.567 165.356C114.143 168.863 118.65 170.616 125.088 170.616L143.876 159.57C143.876 149.984 142.53 143.205 139.837 139.23C137.145 135.139 132.404 133.093 125.615 133.093Z" fill="black"/>
<path d="M62 42.6667C62 44.8061 61.4512 46.9093 60.4064 48.7734C59.3616 50.6375 57.8563 52.1994 56.0356 53.3085C54.2149 54.4175 52.1405 55.0362 50.0125 55.1047C47.8845 55.1733 45.7748 54.6894 43.8872 53.6999L46.528 61.6602C46.6166 61.9274 46.6408 62.212 46.5986 62.4904C46.5563 62.7689 46.4488 63.0333 46.2848 63.2618C46.1209 63.4903 45.9053 63.6764 45.6558 63.8048C45.4062 63.9331 45.1299 64 44.8496 64H33.1504C32.8701 64 32.5937 63.9331 32.3442 63.8047C32.0946 63.6764 31.879 63.4902 31.7151 63.2617C31.5512 63.0332 31.4436 62.7688 31.4014 62.4903C31.3591 62.2118 31.3833 61.9272 31.472 61.6599L34.1128 53.6999C32.2252 54.6894 30.1155 55.1733 27.9875 55.1047C25.8595 55.0362 23.7851 54.4175 21.9644 53.3085C20.1437 52.1994 18.6384 50.6375 17.5936 48.7734C16.5488 46.9093 16 44.8061 16 42.6667C16 30.7616 37.6035 16.7317 38.5231 16.1403C38.6655 16.0487 38.831 16 39 16C39.169 16 39.3345 16.0487 39.4769 16.1403C40.3965 16.7317 62 30.7616 62 42.6667Z" fill="black"/>
<path d="M234 307.333C234 305.194 233.451 303.091 232.406 301.227C231.362 299.363 229.856 297.801 228.036 296.692C226.215 295.582 224.14 294.964 222.012 294.895C219.884 294.827 217.775 295.311 215.887 296.3L218.528 288.34C218.617 288.073 218.641 287.788 218.599 287.51C218.556 287.231 218.449 286.967 218.285 286.738C218.121 286.51 217.905 286.324 217.656 286.195C217.406 286.067 217.13 286 216.85 286H205.15C204.87 286 204.594 286.067 204.344 286.195C204.095 286.324 203.879 286.51 203.715 286.738C203.551 286.967 203.444 287.231 203.401 287.51C203.359 287.788 203.383 288.073 203.472 288.34L206.113 296.3C204.225 295.311 202.116 294.827 199.988 294.895C197.86 294.964 195.785 295.582 193.964 296.692C192.144 297.801 190.638 299.363 189.594 301.227C188.549 303.091 188 305.194 188 307.333C188 319.238 209.604 333.268 210.523 333.86C210.665 333.951 210.831 334 211 334C211.169 334 211.335 333.951 211.477 333.86C212.396 333.268 234 319.238 234 307.333Z" fill="black"/>
</svg>
