<svg width="250" height="350" viewBox="0 0 250 350" fill="none" xmlns="http://www.w3.org/2000/svg">
<rect width="250" height="350" fill="white"/>
<path d="M173.066 171.464V178.713C173.066 198.75 168.057 212.599 158.039 220.26C164.521 219.906 170.532 218.904 176.072 217.254V239H123.033C115.726 239 108.713 237.821 101.994 235.464C95.2762 232.989 89.442 229.335 84.4917 224.503C79.6593 219.552 76.5359 213.659 75.1215 206.823C73.7072 199.987 73 190.499 73 178.359V171.641C73 159.501 73.7072 150.013 75.1215 143.177C76.5359 136.341 79.6593 130.506 84.4917 125.674C89.442 120.724 95.2762 117.07 101.994 114.713C108.713 112.238 115.726 111 123.033 111C130.341 111 137.295 112.238 143.895 114.713C150.613 117.07 156.448 120.783 161.398 125.851C166.466 130.801 169.648 136.518 170.945 143C172.359 149.483 173.066 158.971 173.066 171.464ZM148.492 177.652V169.166C148.492 154.433 146.488 144.768 142.481 140.171C138.473 135.339 131.991 132.923 123.033 132.923C114.076 132.923 107.475 135.398 103.232 140.348C100.168 144.002 98.3996 150.366 97.9282 159.442C97.6924 162.389 97.5746 166.455 97.5746 171.641V178.182C97.6925 190.676 98.6354 199.221 100.403 203.818C103.704 212.657 111.247 217.077 123.033 217.077C133.287 217.077 140.123 214.131 143.541 208.238C145.781 203.994 147.136 199.869 147.608 195.862C148.197 190.794 148.492 184.724 148.492 177.652Z" fill="black"/>
<path d="M62 42.6667C62 44.8061 61.4512 46.9093 60.4064 48.7734C59.3616 50.6375 57.8563 52.1994 56.0356 53.3085C54.2149 54.4175 52.1405 55.0362 50.0125 55.1047C47.8845 55.1733 45.7748 54.6894 43.8872 53.6999L46.528 61.6602C46.6166 61.9274 46.6408 62.212 46.5986 62.4904C46.5563 62.7689 46.4488 63.0333 46.2848 63.2618C46.1209 63.4903 45.9053 63.6764 45.6558 63.8048C45.4062 63.9331 45.1299 64 44.8496 64H33.1504C32.8701 64 32.5937 63.9331 32.3442 63.8047C32.0946 63.6764 31.879 63.4902 31.7151 63.2617C31.5512 63.0332 31.4436 62.7688 31.4014 62.4903C31.3591 62.2118 31.3833 61.9272 31.472 61.6599L34.1128 53.6999C32.2252 54.6894 30.1155 55.1733 27.9875 55.1047C25.8595 55.0362 23.7851 54.4175 21.9644 53.3085C20.1437 52.1994 18.6384 50.6375 17.5936 48.7734C16.5488 46.9093 16 44.8061 16 42.6667C16 30.7616 37.6035 16.7317 38.5231 16.1403C38.6655 16.0487 38.831 16 39 16C39.169 16 39.3345 16.0487 39.4769 16.1403C40.3965 16.7317 62 30.7616 62 42.6667Z" fill="black"/>
<path d="M234 307.333C234 305.194 233.451 303.091 232.406 301.227C231.362 299.363 229.856 297.801 228.036 296.692C226.215 295.582 224.14 294.964 222.012 294.895C219.884 294.827 217.775 295.311 215.887 296.3L218.528 288.34C218.617 288.073 218.641 287.788 218.599 287.51C218.556 287.231 218.449 286.967 218.285 286.738C218.121 286.51 217.905 286.324 217.656 286.195C217.406 286.067 217.13 286 216.85 286H205.15C204.87 286 204.594 286.067 204.344 286.195C204.095 286.324 203.879 286.51 203.715 286.738C203.551 286.967 203.444 287.231 203.401 287.51C203.359 287.788 203.383 288.073 203.472 288.34L206.113 296.3C204.225 295.311 202.116 294.827 199.988 294.895C197.86 294.964 195.785 295.582 193.964 296.692C192.144 297.801 190.638 299.363 189.594 301.227C188.549 303.091 188 305.194 188 307.333C188 319.238 209.604 333.268 210.523 333.86C210.665 333.951 210.831 334 211 334C211.169 334 211.335 333.951 211.477 333.86C212.396 333.268 234 319.238 234 307.333Z" fill="black"/>
</svg>
