<svg width="250" height="350" viewBox="0 0 250 350" fill="none" xmlns="http://www.w3.org/2000/svg">
<rect width="250" height="350" fill="white"/>
<path d="M62 42.6667C62 44.8061 61.4512 46.9093 60.4064 48.7734C59.3616 50.6375 57.8563 52.1994 56.0356 53.3085C54.2149 54.4175 52.1405 55.0362 50.0125 55.1047C47.8845 55.1733 45.7748 54.6894 43.8872 53.6999L46.528 61.6602C46.6166 61.9274 46.6408 62.212 46.5986 62.4904C46.5563 62.7689 46.4488 63.0333 46.2848 63.2618C46.1209 63.4903 45.9053 63.6764 45.6558 63.8048C45.4062 63.9331 45.1299 64 44.8496 64H33.1504C32.8701 64 32.5937 63.9331 32.3442 63.8047C32.0946 63.6764 31.879 63.4902 31.7151 63.2617C31.5512 63.0332 31.4436 62.7688 31.4014 62.4903C31.3591 62.2118 31.3833 61.9272 31.472 61.6599L34.1128 53.6999C32.2252 54.6894 30.1155 55.1733 27.9875 55.1047C25.8595 55.0362 23.7851 54.4175 21.9644 53.3085C20.1437 52.1994 18.6384 50.6375 17.5936 48.7734C16.5488 46.9093 16 44.8061 16 42.6667C16 30.7616 37.6035 16.7317 38.5231 16.1403C38.6655 16.0487 38.831 16 39 16C39.169 16 39.3345 16.0487 39.4769 16.1403C40.3965 16.7317 62 30.7616 62 42.6667Z" fill="black"/>
<path d="M162.644 146.021C162.644 150.573 161.71 154.425 159.843 157.577C158.092 160.729 156.866 162.83 156.166 163.881C155.582 164.815 154.298 166.566 152.313 169.134C150.446 171.586 149.453 172.87 149.337 172.986L137.605 185.068C135.503 187.753 134.453 190.73 134.453 193.999V199.427H111.689V192.423C111.689 184.601 113.907 178.531 118.343 174.212L129.2 164.231C134.57 159.445 137.838 155.243 139.005 151.624C139.589 149.756 139.881 147.83 139.881 145.845C139.881 140.009 138.714 136.156 136.379 134.289C134.161 132.421 130.367 131.487 124.997 131.487C119.744 131.487 115.834 132.479 113.265 134.464C110.697 136.448 109.413 140.359 109.413 146.196C109.413 151.916 111.223 157.519 114.841 163.005L97.156 170.01C93.4204 165.457 90.7939 161.488 89.2763 158.103C87.7588 154.601 87 150.573 87 146.021C87 134.23 89.9767 125.475 95.9302 119.755C101.884 113.918 111.806 111 125.698 111C150.329 111 162.644 122.674 162.644 146.021ZM135.153 213.26C137.021 215.011 137.955 218.805 137.955 224.642C137.955 230.478 137.021 234.331 135.153 236.198C133.402 238.066 129.608 239 123.772 239C117.935 239 114.083 238.066 112.215 236.198C110.347 234.331 109.413 230.478 109.413 224.642C109.413 218.805 110.347 215.011 112.215 213.26C114.083 211.392 117.935 210.458 123.772 210.458C129.608 210.458 133.402 211.392 135.153 213.26Z" fill="black"/>
<path d="M234 307.333C234 305.194 233.451 303.091 232.406 301.227C231.362 299.363 229.856 297.801 228.036 296.692C226.215 295.582 224.14 294.964 222.012 294.895C219.884 294.827 217.775 295.311 215.887 296.3L218.528 288.34C218.617 288.073 218.641 287.788 218.599 287.51C218.556 287.231 218.449 286.967 218.285 286.738C218.121 286.51 217.905 286.324 217.656 286.195C217.406 286.067 217.13 286 216.85 286H205.15C204.87 286 204.594 286.067 204.344 286.195C204.095 286.324 203.879 286.51 203.715 286.738C203.551 286.967 203.444 287.231 203.401 287.51C203.359 287.788 203.383 288.073 203.472 288.34L206.113 296.3C204.225 295.311 202.116 294.827 199.988 294.895C197.86 294.964 195.785 295.582 193.964 296.692C192.144 297.801 190.638 299.363 189.594 301.227C188.549 303.091 188 305.194 188 307.333C188 319.238 209.604 333.268 210.523 333.86C210.665 333.951 210.831 334 211 334C211.169 334 211.335 333.951 211.477 333.86C212.396 333.268 234 319.238 234 307.333Z" fill="black"/>
</svg>
